<?xml version="1.0" encoding="utf-8"?>
<!-- Generator: Adobe Illustrator 24.0.2, SVG Export Plug-In . SVG Version: 6.00 Build 0)  -->
<svg version="1.1" id="Layer_1" xmlns="http://www.w3.org/2000/svg" xmlns:xlink="http://www.w3.org/1999/xlink" x="0px" y="0px"
	 viewBox="0 0 951 1331" style="enable-background:new 0 0 951 1331;" xml:space="preserve">
<style type="text/css">
	.st0{fill:#897053;}
</style>
<g id="BG">
</g>
<g id="Object">
	<g>
		<g>
			<path class="st0" d="M505.5,1249.1l-280.3-104.3l-0.4-1L106.4,866.2l0.3-0.9l220.6-622.8l180.9-22l0.8,0.6l322.5,245.7l0.1,1.1
				l37.3,561.2l-1.1,0.8l-202.5,147.4l-0.2,0.1L505.5,1249.1z M229.1,1140.9l276.3,102.8l157.4-70.7l200.9-146.3l-37-557.3
				L506.8,225.7l-175.8,21.4L111.7,866.1L229.1,1140.9z"/>
		</g>
		<g>
			<path class="st0" d="M746.2,1185.2l-2.2-0.2l-518.2-39.8l-0.7-0.9L82.1,960.6l154.1-592.2l91.5-125.9l180.5-21.3l0.9,1.2
				l338.2,479.5l-0.2,1.1L746.2,1185.2z M228.5,1140.4l513.8,39.5L842,703L505.9,226.5l-175.4,20.7l-89.7,123.3L87.5,959.4
				L228.5,1140.4z"/>
		</g>
		<g>
			<path class="st0" d="M506.4,1248.6l-1.7-4.7l158.3-71.1l202.5-147.3l3.4,3.6l-121.8,155.5l-1.3,0.9L506.4,1248.6z M854,1040.1
				L665.8,1177l-0.5,0.3L534.4,1236l209.3-55.2L854,1040.1z"/>
		</g>
		<g>
			<path class="st0" d="M238.8,371.7c-0.7,0-1.4-0.3-1.9-0.9c-0.8-0.9-0.8-2.2-0.1-3.1l90.6-124.6c0.4-0.6,1-0.9,1.7-1l178-21
				c1.2-0.1,2.3,0.6,2.7,1.7c0.4,1.1-0.1,2.4-1.2,2.9L239.9,371.4C239.6,371.6,239.2,371.7,238.8,371.7z M330.8,247l-83.5,114.8
				l247.4-134.2L330.8,247z"/>
		</g>
	</g>
</g>
<g id="Words">
</g>
</svg>
