<?xml version="1.0" encoding="utf-8"?>
<!-- Generator: Adobe Illustrator 24.0.2, SVG Export Plug-In . SVG Version: 6.00 Build 0)  -->
<svg version="1.1" id="Layer_1" xmlns="http://www.w3.org/2000/svg" xmlns:xlink="http://www.w3.org/1999/xlink" x="0px" y="0px"
	 viewBox="0 0 951 1331" style="enable-background:new 0 0 951 1331;" xml:space="preserve">
<style type="text/css">
	.st0{fill:#897053;}
</style>
<g id="BG">
</g>
<g id="Object">
	<g>
		<g>
			<path class="st0" d="M254.9,1225.9L61.9,711.8l192.8-537.3l411-69.6l223.4,459.9l-162.5,578.4L254.9,1225.9z M67.2,711.8
				l190.9,508.5l464.5-81.3l161.1-573.6l-221-454.8L258.4,179L67.2,711.8z"/>
		</g>
		<g>
			<path class="st0" d="M255.1,1226.4L61.9,711.8l192.9-537.6l378.5,10.3l256.1,380.3l-242.7,484.8l-0.8,0.4L255.1,1226.4z
				 M67.2,711.8l190.7,507.9L643,1045.9l240.6-480.6l-253-375.8l-372.3-10.2L67.2,711.8z"/>
		</g>
		<g>
			<path class="st0" d="M726.5,1143.7l-2-0.1l-419.4-12.4l-0.7-1.2L61.7,711.8l0.7-1.3l271.7-472.1l0.8-0.3l330.6-133.6l1,2.1
				l222.6,458.2L726.5,1143.7z M308.1,1126.2l414.6,12.3l161-573.2L663,110.9L337.5,242.4L67.4,711.8L308.1,1126.2z"/>
		</g>
	</g>
</g>
<g id="Words">
</g>
</svg>
