<?xml version="1.0" encoding="utf-8"?>
<!-- Generator: Adobe Illustrator 24.0.2, SVG Export Plug-In . SVG Version: 6.00 Build 0)  -->
<svg version="1.1" id="Layer_1" xmlns="http://www.w3.org/2000/svg" xmlns:xlink="http://www.w3.org/1999/xlink" x="0px" y="0px"
	 viewBox="0 0 951 1331" style="enable-background:new 0 0 951 1331;" xml:space="preserve">
<style type="text/css">
	.st0{fill:#897053;}
</style>
<g id="BG">
</g>
<g id="Object">
	<g>
		<g>
			<path class="st0" d="M471.7,1240.6l-172.6-157.5l-0.6-0.9L59,499.8l0.9-3L655.4,91.2l3.6,0.8l233,409.9l0.3,1.8l-86.3,381.8
				l-0.6,1.2l-330.1,353.8L471.7,1240.6z M302.9,1079.8l170.3,155.4l327.9-351.5l85.9-380.2L655.9,96.8L64.4,499.7L302.9,1079.8z"/>
		</g>
		<g>
			<path class="st0" d="M213.9,1121.9l-0.7-2.8L58.5,497.7l499.8-340.4l1.5,1.5l332.8,343.5l-0.3,1.3l-86.6,383.1l-1.2,0.5
				L213.9,1121.9z M64.2,499.9l153.1,615.2l584-232L887,503.9L557.6,163.8L64.2,499.9z"/>
		</g>
		<g>
			<path class="st0" d="M62.2,500.7l-3.5-3.4l219.5-367l1.9-1.2l376.5-38.4l1.7,4.6L62.2,500.7z M281.8,134L68.8,490.2L647.2,96.7
				L281.8,134z"/>
		</g>
		<g>
			<path class="st0" d="M557.7,163l-277.6-28.9v-5l378.3-38.8L660,95l-100.7,67.7L557.7,163z M304.7,131.7L557.3,158l91.6-61.6
				L304.7,131.7z"/>
		</g>
		<g>
			<path class="st0" d="M475.2,1240.5l-4.2-1l-55.4-200.7l0.5-2.3l471.5-535.2l4.3,2.2l-86.1,382.1l-0.6,1.2L475.2,1240.5z
				 M420.8,1038.7l53.8,195.1l326.6-350L885,511.9L420.8,1038.7z"/>
		</g>
	</g>
</g>
<g id="Words">
</g>
</svg>
