<?xml version="1.0" encoding="utf-8"?>
<!-- Generator: Adobe Illustrator 24.0.2, SVG Export Plug-In . SVG Version: 6.00 Build 0)  -->
<svg version="1.1" id="Layer_1" xmlns="http://www.w3.org/2000/svg" xmlns:xlink="http://www.w3.org/1999/xlink" x="0px" y="0px"
	 viewBox="0 0 951 1331" style="enable-background:new 0 0 951 1331;" xml:space="preserve">
<style type="text/css">
	.st0{fill:#897053;}
</style>
<g id="BG">
</g>
<g id="Object">
	<g>
		<g>
			<path class="st0" d="M636.8,1174.2H303.5l-2.2-1.3L87.7,768.4l-0.3-1.5l77.7-495.1l1-1.6l301-220l3.7,1l307.4,660.1l0.1,1.8
				l-139.2,459.5L636.8,1174.2z M305,1169.2h329.9l138.3-456.8L467.5,55.9L169.9,273.6L92.5,766.8L305,1169.2z"/>
		</g>
		<g>
			<path class="st0" d="M773.6,713.3L466.2,53.2l3.7-3.1l313.9,220l1.1,2.1l-6.5,440.1L773.6,713.3z M474.7,59.5l298.9,641.8
				l6.3-427.9L474.7,59.5z"/>
		</g>
		<g>
			<path class="st0" d="M859.7,773.6l-85.2-59.3l-1.1-2.1l6.5-440.1l5-0.4l78.7,499.4L859.7,773.6z M778.4,711l79.3,55.2
				l-73.3-464.8L778.4,711z"/>
		</g>
		<g>
			<path class="st0" d="M638.9,1173l-4.6-1.9l139.2-459.5l3.8-1.3l85.2,59.3l0.8,3.3L638.9,1173z M777.3,716.3l-131.5,434.2
				l212-378.2L777.3,716.3z"/>
		</g>
		<g>
			<path class="st0" d="M638.5,1174.3l-335.1-0.1l-2.2-1.3L87.7,768.4l2.3-3.7l127.3,4.3l1.6,0.7L640.3,1170L638.5,1174.3z
				 M305,1169.2l327.3,0.1L216.1,774l-122-4.1L305,1169.2z"/>
		</g>
		<g>
			<path class="st0" d="M301.2,1172.9L87.7,768.4l2.3-3.7l127.3,4.3l2.4,2l86.3,400.2L301.2,1172.9z M94.1,769.9l203.1,384.6
				L215.1,774L94.1,769.9z"/>
		</g>
		<g>
			<path class="st0" d="M217.1,774.1l-127.3-4.3l-2.4-2.9l77.9-496.7l5,0.1l49.4,501L217.1,774.1z M92.8,764.8l121.6,4.1
				l-47.2-478.7L92.8,764.8z"/>
		</g>
		<g>
			<path class="st0" d="M92.1,768.4l-4.7-1.6l77.7-495.1l1-1.6L468.6,48.8l3.7,3.2L92.1,768.4z M169.9,273.6L94.7,752.9L462.8,59.3
				L169.9,273.6z"/>
		</g>
	</g>
</g>
<g id="Words">
</g>
</svg>
