<svg height="40" viewBox="0 0 177 40" width="177" xmlns="http://www.w3.org/2000/svg" xmlns:xlink="http://www.w3.org/1999/xlink"><linearGradient id="a" x1="-15.86084%" x2="124.048445%" y1="49.999233%" y2="49.999233%"><stop offset="0" stop-color="#00cd87"/><stop offset="1" stop-color="#00c8d6"/></linearGradient><mask id="b" fill="#fff"><path d="m14.0690127 2.16430769c-.5406896.32184616-1.0524356.62523077-1.4730403.79938462-.4600172.19076923-1.0622887.34830769-1.6996619.51507692-1.60544146.41969231-3.60192833.94153846-5.16056753 2.50030769-1.55925501 1.55692308-2.08146996 3.552-2.50145887 5.15507688-.16627127.6375385-.32392107 1.2393847-.51544094 1.7009231-.1736611.4178462-.4766443.9286154-.79810209 1.4683077-.85660495 1.4418462-1.92074107 3.232-1.92074107 5.512 0 2.2806154 1.06413612 4.0701539 1.91889361 5.5095385.32207361.5415384.62628845 1.0523077.79994955 1.472.19151987.4609231.34916967 1.0627692.51544094 1.7003077.41998891 1.6024615.94158804 3.5975384 2.50084305 5.1563077 1.55925502 1.5575384 3.55512607 2.0787692 5.15872005 2.4984615.641684.168 1.2427238.3249231 1.7021252.5156923.4206047.1741539.9317349.4775385 1.4730403.7987692 1.439786.8547693 3.2318208 1.9181539 5.5134321 1.9181539 2.2822271 0 4.0742619-1.0633846 5.5140479-1.9181539.5437687-.3224615 1.0542831-.6258461 1.4718087-.7987692.460633-.1907692 1.061057-.3476923 1.6971986-.5144615 1.6097522-.4209231 3.6056232-.9421539 5.1636466-2.4996923 1.559255-1.5581539 2.08147-3.5526154 2.5014589-5.155077.1668871-.6387692.3251527-1.2406153.5160567-1.700923.174277-.4203077.477876-.931077.7999496-1.472.8547575-1.4393847 1.9182778-3.2295385 1.9182778-5.5101539 0-2.2793846-1.0635203-4.0695384-1.917662-5.5076923-.3226894-.5421538-.6262884-1.0541538-.8005654-1.4726154-.190904-.4609231-.3491696-1.0627692-.5154409-1.6996923-.4206047-1.60492306-.9428197-3.5993846-2.5020747-5.15630768-1.5580234-1.55876923-3.5545102-2.08061538-5.1587201-2.4996923-.637989-.16676924-1.2402605-.32492308-1.7015093-.51569231-.4199889-.17415385-.9317349-.47753846-1.4730403-.79938462-1.439786-.85415384-3.231205-1.91692307-5.5134321-1.91692307-2.2816113 0-4.0724145 1.06276923-5.5134321 1.91692307m-1.9466055 10.83876921c-.2635708-.0652307-.5320681-.1513846-.7352885-.3329231-.8399778-.7513846.5339155-1.2726153 1.1084751-1.4116923 2.876493-.6947692 5.8361216-1.0172307 8.7939027-1.0572307 1.6066731-.0209231 3.2281259.0424615 4.7892284.4252307.7014184.1716923 1.4034526.4172308 1.96508.8732308.2734239.2227692.5185201.5138462.5628591.8633846.0437232.3489231-.1872091.7458462-.5369946.7784616-.1182374.0110769-.2407855-.0166154-.3614861-.0443077-.1884408-.043077-.3725708-.0867693-.5246782.0166154-.1915199.1304615-.1939832.4110769-.1391752.6363076.3220736 1.3144616 1.7951139 2.0769231 2.2009389 3.3692308.0535763.1698462.0806724.3729231-.0326384.5107692-.0923729.1132308-.2494069.1446154-.3935087.1692308-.6718591.1138462-1.3504922.2283077-2.0315886.2006154-.6810964-.0270769-1.3751249-.208-1.9108879-.6301538-.7808592-.6147693-1.1140175-1.6313847-1.7378427-2.4049231-.6730907-.8344616-1.6657918-1.3507693-2.7133008-1.616-.2069153-.0529231-.4156782-.0953846-.6250568-.128-1.2679724-.2024616-2.5618092-.1021539-3.8445612-.0276923-.508667.0295384-1.0210288.0541538-1.532159.0541538-.7765484 0-1.5494019-.0572308-2.3013175-.2443077m2.3567413 6.7821539c-.3682601-.1015385-.7543789-.2289231-1.0025542-.5193846-.4864974-.571077-.2740397-1.6295385.1767402-2.1587693.5043562-.592 1.3628086-.8092307 2.0919389-.9532307 1.2963001-.2547693 2.6196962-.3692308 3.9406291-.3433847.5443844.011077 1.1214073.0566154 1.566029.3735385.5154409.3673846.7359043 1.0135385.9261926 1.6172308.0344858.1101538.0702034.2246154.0769774.3384615.0043107.0596923 0 .1193846-.0147797.1784615-.0424915.1618462-.1668871.2886154-.2912826.4006154-.9766898.8775385-2.2705266 1.3544616-3.5772956 1.4843077-.2734238.0276923-.5474635.04-.8215032.04-1.0351926 0-2.0703852-.1821538-3.0710919-.4578461m16.2761098 4.6566154c-.0775933-.0104616-.1465651-.0553847-.2099945-.1003077-.3584069-.2504616-.7008026-.5378462-.9323507-.9083077-.6675484-1.0707693-.6065822-2.9156923.3941245-3.7446154.0554237-.0461539.1163899-.0904616.1872091-.1003077.1009944-.0135385.1970622.0449231.2777346.1083077.7500682.5827692 1.0136389 1.5876923 1.160204 2.5267692.0461864.3015385.0862147.6098462.0683559.9132308-.0055423.1003077-.0178587.2006154-.0387966.3003077-.0806724.3981538-.3134521.7864615-.6829438.9575384-.0585029.0283077-.1225481.0498462-.1865934.0498462-.0123163 0-.0246327-.0006154-.0369491-.0024615m-7.1139471.4566153c-.2586442-.0012307-.5234466-.024-.7753167-.0824615-.5776388-.1353846-1.15343-.2849231-1.7212156-.456-.2463278-.0738462-.4852658-.192-.7008026-.3310769-.2136894-.1384616-.3023674-.3667693-.2845086-.6289231.013548-.1944615.0215537-.3889231.0326384-.5944615 0-.1833847.0061582-.3784616-.0012316-.5735385-.0098531-.2713846.0708192-.5175385.2672656-.696.2062996-.1876923.4298421-.3673846.6743224-.4978462.5967291-.3181538 1.2063904-.6104615 1.8148201-.9052307.5388421-.2621539 1.098622-.3169231 1.6731817-.1267693.4470849.1476924.8929383.3009231 1.3363283.459077.5277573.1883077.846136.5415384.8596841 1.1261538.006774.3384616.0160113.6763077.0307909 1.0141539.024017.5772307-.2549493.9790769-.7389834 1.2492307-.474181.264-.9582152.5101539-1.4385544.7636923-.3196103.1686154-.6589269.28-1.0204129.28-.0024633 0-.0049266 0-.0080057 0m2.5858262 5.1033847c-.4132149-.2043077-.8141134-.4338462-1.2224018-.648-.4045934-.2123077-.5597799-.544-.4427742-.9827693.1336328-.5052307.2703448-1.0092307.4132149-1.5113846.1237797-.4375385.40952-.7593846.7888648-.9852308.5985766-.3563077 1.2076221-.6978461 1.8209783-1.0264615.3793448-.2043077.764232-.2092308 1.1238706.0744615.2260058.1772308.4575539.3476923.6903337.515077.3928929.2806153.4969664.6793846.4421584 1.1267692-.064661.5230769-.1459492 1.0449231-.2340114 1.5649231-.081904.4793846-.3245369.8590769-.7562264 1.1021538-.4329211.2436923-.8670738.4855385-1.3024582.7249231-.2327798.128-.4821867.2-.7623846.2344615-.1872091-.060923-.3848872-.1021538-.5591641-.188923" fill="#fff" fill-rule="evenodd"/></mask><mask id="c" fill="#fff"><path d="m0 39.3846154h176.56654v-39.13784617h-176.56654z" fill="#fff" fill-rule="evenodd"/></mask><g fill="none" fill-rule="evenodd" transform="translate(0 .368615)"><path d="m14.0690127 2.16430769c-.5406896.32184616-1.0524356.62523077-1.4730403.79938462-.4600172.19076923-1.0622887.34830769-1.6996619.51507692-1.60544146.41969231-3.60192833.94153846-5.16056753 2.50030769-1.55925501 1.55692308-2.08146996 3.552-2.50145887 5.15507688-.16627127.6375385-.32392107 1.2393847-.51544094 1.7009231-.1736611.4178462-.4766443.9286154-.79810209 1.4683077-.85660495 1.4418462-1.92074107 3.232-1.92074107 5.512 0 2.2806154 1.06413612 4.0701539 1.91889361 5.5095385.32207361.5415384.62628845 1.0523077.79994955 1.472.19151987.4609231.34916967 1.0627692.51544094 1.7003077.41998891 1.6024615.94158804 3.5975384 2.50084305 5.1563077 1.55925502 1.5575384 3.55512607 2.0787692 5.15872005 2.4984615.641684.168 1.2427238.3249231 1.7021252.5156923.4206047.1741539.9317349.4775385 1.4730403.7987692 1.439786.8547693 3.2318208 1.9181539 5.5134321 1.9181539 2.2822271 0 4.0742619-1.0633846 5.5140479-1.9181539.5437687-.3224615 1.0542831-.6258461 1.4718087-.7987692.460633-.1907692 1.061057-.3476923 1.6971986-.5144615 1.6097522-.4209231 3.6056232-.9421539 5.1636466-2.4996923 1.559255-1.5581539 2.08147-3.5526154 2.5014589-5.155077.1668871-.6387692.3251527-1.2406153.5160567-1.700923.174277-.4203077.477876-.931077.7999496-1.472.8547575-1.4393847 1.9182778-3.2295385 1.9182778-5.5101539 0-2.2793846-1.0635203-4.0695384-1.917662-5.5076923-.3226894-.5421538-.6262884-1.0541538-.8005654-1.4726154-.190904-.4609231-.3491696-1.0627692-.5154409-1.6996923-.4206047-1.60492306-.9428197-3.5993846-2.5020747-5.15630768-1.5580234-1.55876923-3.5545102-2.08061538-5.1587201-2.4996923-.637989-.16676924-1.2402605-.32492308-1.7015093-.51569231-.4199889-.17415385-.9317349-.47753846-1.4730403-.79938462-1.439786-.85415384-3.231205-1.91692307-5.5134321-1.91692307-2.2816113 0-4.0724145 1.06276923-5.5134321 1.91692307m-1.9466055 10.83876921c-.2635708-.0652307-.5320681-.1513846-.7352885-.3329231-.8399778-.7513846.5339155-1.2726153 1.1084751-1.4116923 2.876493-.6947692 5.8361216-1.0172307 8.7939027-1.0572307 1.6066731-.0209231 3.2281259.0424615 4.7892284.4252307.7014184.1716923 1.4034526.4172308 1.96508.8732308.2734239.2227692.5185201.5138462.5628591.8633846.0437232.3489231-.1872091.7458462-.5369946.7784616-.1182374.0110769-.2407855-.0166154-.3614861-.0443077-.1884408-.043077-.3725708-.0867693-.5246782.0166154-.1915199.1304615-.1939832.4110769-.1391752.6363076.3220736 1.3144616 1.7951139 2.0769231 2.2009389 3.3692308.0535763.1698462.0806724.3729231-.0326384.5107692-.0923729.1132308-.2494069.1446154-.3935087.1692308-.6718591.1138462-1.3504922.2283077-2.0315886.2006154-.6810964-.0270769-1.3751249-.208-1.9108879-.6301538-.7808592-.6147693-1.1140175-1.6313847-1.7378427-2.4049231-.6730907-.8344616-1.6657918-1.3507693-2.7133008-1.616-.2069153-.0529231-.4156782-.0953846-.6250568-.128-1.2679724-.2024616-2.5618092-.1021539-3.8445612-.0276923-.508667.0295384-1.0210288.0541538-1.532159.0541538-.7765484 0-1.5494019-.0572308-2.3013175-.2443077m2.3567413 6.7821539c-.3682601-.1015385-.7543789-.2289231-1.0025542-.5193846-.4864974-.571077-.2740397-1.6295385.1767402-2.1587693.5043562-.592 1.3628086-.8092307 2.0919389-.9532307 1.2963001-.2547693 2.6196962-.3692308 3.9406291-.3433847.5443844.011077 1.1214073.0566154 1.566029.3735385.5154409.3673846.7359043 1.0135385.9261926 1.6172308.0344858.1101538.0702034.2246154.0769774.3384615.0043107.0596923 0 .1193846-.0147797.1784615-.0424915.1618462-.1668871.2886154-.2912826.4006154-.9766898.8775385-2.2705266 1.3544616-3.5772956 1.4843077-.2734238.0276923-.5474635.04-.8215032.04-1.0351926 0-2.0703852-.1821538-3.0710919-.4578461m16.2761098 4.6566154c-.0775933-.0104616-.1465651-.0553847-.2099945-.1003077-.3584069-.2504616-.7008026-.5378462-.9323507-.9083077-.6675484-1.0707693-.6065822-2.9156923.3941245-3.7446154.0554237-.0461539.1163899-.0904616.1872091-.1003077.1009944-.0135385.1970622.0449231.2777346.1083077.7500682.5827692 1.0136389 1.5876923 1.160204 2.5267692.0461864.3015385.0862147.6098462.0683559.9132308-.0055423.1003077-.0178587.2006154-.0387966.3003077-.0806724.3981538-.3134521.7864615-.6829438.9575384-.0585029.0283077-.1225481.0498462-.1865934.0498462-.0123163 0-.0246327-.0006154-.0369491-.0024615m-7.1139471.4566153c-.2586442-.0012307-.5234466-.024-.7753167-.0824615-.5776388-.1353846-1.15343-.2849231-1.7212156-.456-.2463278-.0738462-.4852658-.192-.7008026-.3310769-.2136894-.1384616-.3023674-.3667693-.2845086-.6289231.013548-.1944615.0215537-.3889231.0326384-.5944615 0-.1833847.0061582-.3784616-.0012316-.5735385-.0098531-.2713846.0708192-.5175385.2672656-.696.2062996-.1876923.4298421-.3673846.6743224-.4978462.5967291-.3181538 1.2063904-.6104615 1.8148201-.9052307.5388421-.2621539 1.098622-.3169231 1.6731817-.1267693.4470849.1476924.8929383.3009231 1.3363283.459077.5277573.1883077.846136.5415384.8596841 1.1261538.006774.3384616.0160113.6763077.0307909 1.0141539.024017.5772307-.2549493.9790769-.7389834 1.2492307-.474181.264-.9582152.5101539-1.4385544.7636923-.3196103.1686154-.6589269.28-1.0204129.28-.0024633 0-.0049266 0-.0080057 0m2.5858262 5.1033847c-.4132149-.2043077-.8141134-.4338462-1.2224018-.648-.4045934-.2123077-.5597799-.544-.4427742-.9827693.1336328-.5052307.2703448-1.0092307.4132149-1.5113846.1237797-.4375385.40952-.7593846.7888648-.9852308.5985766-.3563077 1.2076221-.6978461 1.8209783-1.0264615.3793448-.2043077.764232-.2092308 1.1238706.0744615.2260058.1772308.4575539.3476923.6903337.515077.3928929.2806153.4969664.6793846.4421584 1.1267692-.064661.5230769-.1459492 1.0449231-.2340114 1.5649231-.081904.4793846-.3245369.8590769-.7562264 1.1021538-.4329211.2436923-.8670738.4855385-1.3024582.7249231-.2327798.128-.4821867.2-.7623846.2344615-.1872091-.060923-.3848872-.1021538-.5591641-.188923" fill="url(#a)" mask="url(#b)"/><g fill="#000"><path d="m69.9843163 9.70781538c-.4089042.0123077-.8005654.1003077-1.1300289.33907692-.2771187.2006154-.4766443.488-.6706274.7692308-1.9964869 2.8929231-3.9917421 5.7858461-5.9876132 8.6787692-1.8259048-2.6387692-3.6511939-5.2775385-5.4770987-7.9163077-.4008985-.5796923-.8171925-1.1747692-1.4096109-1.5575384-.3571753-.23076928-.7900964-.36738466-1.2174752-.35076928-.2838928.01107693-.8011812.08861539-.8584524.42953848-.0412599.2455384-.0049266.5255384-.0055424.7747692-.0006158.2726154-.0012316.5458462-.0018474.8196923-.0012317.5464616-.0018475 1.0923077-.0024633 1.6393846-.0030791 2.1858462-.0036949 4.3723077-.0012317 6.5581539.0018475 2.1864615.0061582 4.3723077.0129323 6.5587692.0006158.1526154.0012316.3058462.0018474.4584616 1.1115542-.0012308 2.2237243-.0024616 3.3358943-.0036924.0123164-3.1975384.0246328-6.3944615.0369492-9.592 1.4804301 2.1101539 2.9602444 4.2203077 4.4406745 6.3304616.2974409.4233846.7125032.8996923 1.2230176.8092308.2869719-.0516924.5080511-.2756924.7014184-.4947693 1.771097-2.0123077 2.9159054-4.5292307 4.7849177-6.4510769.0166271 3.128.0326384 6.2566154.0492655 9.3852308h3.3592955c-.0012316-5.6916923-.0018475-11.3827693-.0030791-17.07446157-.3836556-.06338461-.7900964-.12184615-1.1811418-.11015385"/><path d="m104.470209 19.3000615c.197678-1.5550769 1.525385-2.6301538 3.212115-2.6221538 1.613447.0073846 2.850628 1.0756923 3.007662 2.6221538zm6.388512-4.6012307c-2.403544-1.2676923-5.796093-.9076923-7.705134.8923077-2.194165 2.0676923-2.633244 4.6473846-1.738458 7.4.897864 2.7612307 3.042764 4.0418461 5.867528 4.2307692 2.220645.1476923 4.256544-.4141539 6.161274-1.7206154-.444622-.7901538-.856605-1.5218461-1.263661-2.2461538-4.122912 1.9661538-7.335643 1.3538461-7.699592-1.4486154h9.30688c.068972-.256.140407-.4387693.165656-.6276923.365181-2.7187693-.874464-5.3089231-3.094493-6.48z"/><path d="m126.309817 14.2883692c-.533299-.0123077-1.067215-.0221538-1.600515-.0313846-.302367-.0049231-.621362-.0055384-.883701.1452308-.365181.2098461-.519136.6486154-.64661 1.0498461-.751916 2.3735385-1.56295 4.7286154-2.431871 7.0615385-.993317-2.5169231-1.999566-5.0295385-3.017516-7.536-.084983-.2086154-.179819-.4295385-.367029-.5526154-.18105-.1193846-.411983-.1236923-.628135-.1236923-.542537 0-1.085074-.0006154-1.626996-.0012308-.27096 0-.542537-.0006153-.813497-.0006153-.129938 0-.260492-.0036924-.39043 0-.150876.0036923-.18413.0012307-.142254.1476923.072051.2541538.223542.5083077.330079.7507692.110232.2492308.220464.4996923.330695.7495385.219848.4996923.440311 1 .660775 1.4996923.880622 1.9993846 1.761243 3.9993846 2.642481 5.9987692.352249.8.705114 1.5993846 1.056746 2.3993846.160729.3636923.323922.7403077.326385 1.1378462.002463.3950769-.15765.7784615-.381192 1.1046153-.818425 1.195077-2.580284 1.6227693-3.856878.9366154-.18413.8966154-.367644 1.7926154-.551774 2.6892308 1.312311.7286154 2.965171.8941538 4.334753.2793846 1.011176-.4541538 1.811741-1.2923077 2.402312-2.2301538.590571-.9378462.990854-1.9803077 1.387441-3.0153846 1.588815-4.1458462 3.178245-8.2916924 4.767059-12.4375385-.299904-.008-.600424-.0147692-.900328-.0215385"/><path d="m79.5319205 24.252c-1.9903287.0252308-3.5471205-1.6123077-3.5243351-3.7070769.0215536-1.9895385 1.5672606-3.5464616 3.517561-3.5415385 1.9250518.0036923 3.4960074 1.6067692 3.5027814 3.5741539.0061582 2.0326153-1.5327747 3.6498461-3.4960073 3.6744615m-.0073899-10.2996923c-3.920307.0073846-6.8054215 2.8153846-6.8115796 6.6289231-.0061582 3.8695384 2.8844986 6.7156923 6.8214327 6.7163077 3.893211 0 6.7986475-2.8984616 6.7820204-6.7661539-.0160113-3.7347692-2.9596286-6.5864615-6.7918735-6.5790769"/><path d="m153.088975 24.252c-1.973701-.0301538-3.473222-1.6313846-3.457211-3.6923077.015396-1.9895385 1.554329-3.5526154 3.503398-3.5563077 1.958306-.0043077 3.542194 1.6356923 3.516329 3.6412308-.02648 2.0289231-1.614679 3.6375384-3.562516 3.6073846m.105921-10.2996923c-3.920307-.0178462-6.836212 2.7821538-6.855918 6.5827692-.020323 3.8836923 2.843854 6.7433846 6.774014 6.7624616 3.906759.0184615 6.802343-2.8313847 6.829439-6.7206154.025864-3.7187693-2.916522-6.6073846-6.747535-6.6246154"/><path d="m96.5643798 14.2138462c-2.0549897-.6153847-3.9517138-.2953847-5.4173643 1.4572307-.0424915.0504616-.1317854.0627693-.2309323.1076923-.0221695-.4978461-.0418757-.9538461-.0628136-1.4264615h-3.1271315v12.5735385h3.2632276c0-.3421539-.0006158-.64 0-.9372308.006774-2.0498462-.0227853-4.1003077.0326385-6.1483077.0468022-1.712 1.2273282-2.8584615 2.8204533-2.8627692 1.6239161-.0043077 2.6387867 1.0203077 2.6806624 2.8246153.0486497 2.0763077.0215537 4.1544616.027096 6.232.0006159.2935385 0 .5876924 0 .8873847h3.2663068c0-2.8695385.1009944-5.6941539-.0332543-8.507077-.0979153-2.0387692-1.1922266-3.5938461-3.2188886-4.2006153"/><path d="m173.434174 18.6300308c-.077593-2.0676923-1.088153-3.6387693-3.114815-4.3864616-1.974317-.7286154-4.060098-.2061538-5.468477 1.3193846-.076362.0824616-.178588.1409231-.30791.24-.025865-.5427692-.048034-1-.070819-1.4701538h-3.095725v12.5803077h3.237979c0-.3846154-.001232-.7126154 0-1.0393846.010469-2.0775385-.03387-4.1569231.04865-6.2307693.065277-1.6246153 1.324012-2.6996923 2.920216-2.664 1.501984.0338462 2.468204 1.043077 2.566736 2.6892308.019706.3316923.023401.6646154.024017.9969231.001847 1.8.001231 3.6006154.001231 5.4006154v.8449231h3.284166c0-2.8018462.077593-5.5446154-.025249-8.2806154"/><path d="m131.716589 9.81993846h-3.366069v17.09907694h12.086074v-3.296h-8.720005z"/><path d="m141.769042 26.9249231h3.202878v-12.5796923h-3.202878z" mask="url(#c)"/><path d="m143.385877 8.84547692c-1.1756.00738462-2.065459.90892308-2.02851 2.05538458.036333 1.1273847.915724 1.9606154 2.054374 1.9446154 1.147888-.0153846 1.968775-.8553846 1.968775-2.0135384-.000616-1.14338465-.854757-1.99384619-1.994639-1.98646158" mask="url(#c)"/><path d="m174.234616 12.6645538c-1.033345 0-1.787108-.8092307-1.787108-1.8283076 0-1.00430774.753763-1.82769235 1.772944-1.82769235 1.019798 0 1.759397.82338461 1.759397 1.84184615 0 1.0049231-.739599 1.8141538-1.745233 1.8141538m-.014164-4.11630765c-1.312311 0-2.35982 1.01846154-2.35982 2.28800005 0 1.2984615 1.047509 2.316923 2.35982 2.316923 1.327091 0 2.346273-1.0184615 2.346273-2.316923 0-1.26953851-1.019182-2.28800005-2.346273-2.28800005" mask="url(#c)"/><path d="m174.12303 10.7390769h-.251255v-.656c.055424-.0141538.153339-.0276923.293131-.0276923.335005 0 .48896.1396923.48896.3489231 0 .2369231-.237706.3347692-.530836.3347692m.628136.1673846v-.0276923c.279582-.0843077.474797-.2793846.474797-.5304615 0-.2233846-.097916-.40492308-.223543-.50276924-.167503-.09723077-.362718-.16738461-.795639-.16738461-.377497 0-.670627.02830769-.880006.07015384v2.28861541h.530837v-.9212308h.251254c.29313 0 .432921.1113846.474797.3630769.070203.2646154.111463.4744616.181667.5581539h.572712c-.05604-.0836923-.097916-.2233846-.167503-.5723077-.070204-.3070769-.195831-.4744616-.419373-.5581539" mask="url(#c)"/></g></g></svg>