<?xml version="1.0" encoding="utf-8"?>
<!-- Generator: Adobe Illustrator 24.0.2, SVG Export Plug-In . SVG Version: 6.00 Build 0)  -->
<svg version="1.1" id="Layer_1" xmlns="http://www.w3.org/2000/svg" xmlns:xlink="http://www.w3.org/1999/xlink" x="0px" y="0px"
	 viewBox="0 0 612 792" style="enable-background:new 0 0 612 792;" xml:space="preserve">
<style type="text/css">
	.st0{fill:#244651;}
</style>
<g>
	<path class="st0" d="M202,332.1c25.4,0,44.4,18.1,44.4,41.6s-19,41.6-44.4,41.6s-44.4-18.1-44.4-41.6S176.6,332.1,202,332.1z
		 M202,394.2c11.2,0,19.8-9.1,19.8-20.4s-8.6-20.4-19.8-20.4c-11.2,0-19.8,9.1-19.8,20.4S190.8,394.2,202,394.2z"/>
	<path class="st0" d="M306.7,408.8c-5.2,3.7-13.1,6.6-22.2,6.6c-6.8,0-13.3-1.6-18.5-5.2c-5.8-4-9.4-10.4-9.4-18.6
		c0-8.7,4.1-15.4,9.7-19.3c6.2-4.2,14.1-5.7,22.4-5.7c4.7,0,9.4,0.5,13.8,1.5V365c0-3.9-1.3-6.8-3.1-8.4c-2.3-2.1-6.5-3.4-12.3-3.4
		c-8.9,0-17,2.9-23.3,6.3v-21.2c6.5-3.2,16.2-6.2,27.9-6.2c10.7,0,20.3,2.4,26.6,7.6c6,4.9,8.9,12,8.9,22v27.1
		c0,3.7,1.5,6.3,4.9,6.3c1.3,0,2.8-0.3,4.1-1v18.5c-2.8,1.5-7.1,2.4-11.8,2.4c-6.5,0-12.8-1.8-17.2-6.3H306.7z M302.5,382.4
		c-2.6-0.8-6.2-1.1-8.8-1.1c-6.3,0-12.6,1.9-12.6,8.1c0,5.2,4.5,7.9,10.2,7.9c4.2,0,8.3-1.5,11.2-3.2V382.4z"/>
	<path class="st0" d="M348.8,289.9h24.6v77.8l0.3,0.2l27.9-33.9h28l-30.5,35.7l32.7,44.1h-29.2l-29-40.7l-0.3,0.2v40.5h-24.6V289.9z
		"/>
	<rect x="157.6" y="425" class="st0" width="88.8" height="21.8"/>
</g>
</svg>
